<mxfile host="app.diagrams.net" modified="2023-01-04T20:44:39.741Z" agent="5.0 (Macintosh; Intel Mac OS X 10_15_7) AppleWebKit/537.36 (KHTML, like Gecko) Chrome/108.0.0.0 Safari/537.36" etag="5Q-Y7mh074kZXkOwNbhe" version="20.8.1" type="github" pages="2">
  <diagram id="KpNZu5s6K74Fhy5XpJUd" name="Register">
    <mxGraphModel dx="954" dy="537" grid="1" gridSize="10" guides="1" tooltips="1" connect="1" arrows="1" fold="1" page="1" pageScale="1" pageWidth="827" pageHeight="1169" math="0" shadow="0">
      <root>
        <mxCell id="0" />
        <mxCell id="1" parent="0" />
        <mxCell id="UqoLNxq10_P1WbbZh7oi-83" style="edgeStyle=orthogonalEdgeStyle;rounded=0;orthogonalLoop=1;jettySize=auto;html=1;" parent="1" source="UqoLNxq10_P1WbbZh7oi-1" edge="1">
          <mxGeometry relative="1" as="geometry">
            <mxPoint x="90.00000000000011" y="150" as="targetPoint" />
          </mxGeometry>
        </mxCell>
        <mxCell id="UqoLNxq10_P1WbbZh7oi-1" value="Actor" style="shape=umlActor;verticalLabelPosition=bottom;verticalAlign=top;html=1;outlineConnect=0;fillColor=#d5e8d4;strokeColor=#82b366;" parent="1" vertex="1">
          <mxGeometry x="75" y="270" width="30" height="60" as="geometry" />
        </mxCell>
        <mxCell id="UqoLNxq10_P1WbbZh7oi-74" value="" style="edgeStyle=orthogonalEdgeStyle;rounded=0;orthogonalLoop=1;jettySize=auto;html=1;" parent="1" source="UqoLNxq10_P1WbbZh7oi-5" target="UqoLNxq10_P1WbbZh7oi-73" edge="1">
          <mxGeometry relative="1" as="geometry" />
        </mxCell>
        <mxCell id="UqoLNxq10_P1WbbZh7oi-5" value="POST /register" style="rounded=1;whiteSpace=wrap;html=1;fillColor=#dae8fc;strokeColor=#6c8ebf;" parent="1" vertex="1">
          <mxGeometry x="30" y="115" width="120" height="30" as="geometry" />
        </mxCell>
        <mxCell id="UqoLNxq10_P1WbbZh7oi-6" value="Users" style="shape=table;startSize=30;container=1;collapsible=1;childLayout=tableLayout;fixedRows=1;rowLines=0;fontStyle=1;align=center;resizeLast=1;" parent="1" vertex="1">
          <mxGeometry x="590" y="35" width="180" height="335" as="geometry" />
        </mxCell>
        <mxCell id="UqoLNxq10_P1WbbZh7oi-7" value="" style="shape=tableRow;horizontal=0;startSize=0;swimlaneHead=0;swimlaneBody=0;fillColor=none;collapsible=0;dropTarget=0;points=[[0,0.5],[1,0.5]];portConstraint=eastwest;top=0;left=0;right=0;bottom=1;" parent="UqoLNxq10_P1WbbZh7oi-6" vertex="1">
          <mxGeometry y="30" width="180" height="40" as="geometry" />
        </mxCell>
        <mxCell id="UqoLNxq10_P1WbbZh7oi-8" value="PK" style="shape=partialRectangle;connectable=0;fillColor=none;top=0;left=0;bottom=0;right=0;fontStyle=1;overflow=hidden;" parent="UqoLNxq10_P1WbbZh7oi-7" vertex="1">
          <mxGeometry width="30" height="40" as="geometry">
            <mxRectangle width="30" height="40" as="alternateBounds" />
          </mxGeometry>
        </mxCell>
        <mxCell id="UqoLNxq10_P1WbbZh7oi-9" value="id" style="shape=partialRectangle;connectable=0;fillColor=none;top=0;left=0;bottom=0;right=0;align=left;spacingLeft=6;fontStyle=5;overflow=hidden;" parent="UqoLNxq10_P1WbbZh7oi-7" vertex="1">
          <mxGeometry x="30" width="150" height="40" as="geometry">
            <mxRectangle width="150" height="40" as="alternateBounds" />
          </mxGeometry>
        </mxCell>
        <mxCell id="UqoLNxq10_P1WbbZh7oi-10" value="" style="shape=tableRow;horizontal=0;startSize=0;swimlaneHead=0;swimlaneBody=0;fillColor=none;collapsible=0;dropTarget=0;points=[[0,0.5],[1,0.5]];portConstraint=eastwest;top=0;left=0;right=0;bottom=0;" parent="UqoLNxq10_P1WbbZh7oi-6" vertex="1">
          <mxGeometry y="70" width="180" height="30" as="geometry" />
        </mxCell>
        <mxCell id="UqoLNxq10_P1WbbZh7oi-11" value="" style="shape=partialRectangle;connectable=0;fillColor=none;top=0;left=0;bottom=0;right=0;editable=1;overflow=hidden;" parent="UqoLNxq10_P1WbbZh7oi-10" vertex="1">
          <mxGeometry width="30" height="30" as="geometry">
            <mxRectangle width="30" height="30" as="alternateBounds" />
          </mxGeometry>
        </mxCell>
        <mxCell id="UqoLNxq10_P1WbbZh7oi-12" value="name" style="shape=partialRectangle;connectable=0;fillColor=none;top=0;left=0;bottom=0;right=0;align=left;spacingLeft=6;overflow=hidden;" parent="UqoLNxq10_P1WbbZh7oi-10" vertex="1">
          <mxGeometry x="30" width="150" height="30" as="geometry">
            <mxRectangle width="150" height="30" as="alternateBounds" />
          </mxGeometry>
        </mxCell>
        <mxCell id="UqoLNxq10_P1WbbZh7oi-13" value="" style="shape=tableRow;horizontal=0;startSize=0;swimlaneHead=0;swimlaneBody=0;fillColor=none;collapsible=0;dropTarget=0;points=[[0,0.5],[1,0.5]];portConstraint=eastwest;top=0;left=0;right=0;bottom=0;" parent="UqoLNxq10_P1WbbZh7oi-6" vertex="1">
          <mxGeometry y="100" width="180" height="30" as="geometry" />
        </mxCell>
        <mxCell id="UqoLNxq10_P1WbbZh7oi-14" value="" style="shape=partialRectangle;connectable=0;fillColor=none;top=0;left=0;bottom=0;right=0;editable=1;overflow=hidden;" parent="UqoLNxq10_P1WbbZh7oi-13" vertex="1">
          <mxGeometry width="30" height="30" as="geometry">
            <mxRectangle width="30" height="30" as="alternateBounds" />
          </mxGeometry>
        </mxCell>
        <mxCell id="UqoLNxq10_P1WbbZh7oi-15" value="surname" style="shape=partialRectangle;connectable=0;fillColor=none;top=0;left=0;bottom=0;right=0;align=left;spacingLeft=6;overflow=hidden;" parent="UqoLNxq10_P1WbbZh7oi-13" vertex="1">
          <mxGeometry x="30" width="150" height="30" as="geometry">
            <mxRectangle width="150" height="30" as="alternateBounds" />
          </mxGeometry>
        </mxCell>
        <mxCell id="UqoLNxq10_P1WbbZh7oi-16" value="" style="shape=tableRow;horizontal=0;startSize=0;swimlaneHead=0;swimlaneBody=0;fillColor=none;collapsible=0;dropTarget=0;points=[[0,0.5],[1,0.5]];portConstraint=eastwest;top=0;left=0;right=0;bottom=0;" parent="UqoLNxq10_P1WbbZh7oi-6" vertex="1">
          <mxGeometry y="130" width="180" height="30" as="geometry" />
        </mxCell>
        <mxCell id="UqoLNxq10_P1WbbZh7oi-17" value="" style="shape=partialRectangle;connectable=0;fillColor=none;top=0;left=0;bottom=0;right=0;editable=1;overflow=hidden;" parent="UqoLNxq10_P1WbbZh7oi-16" vertex="1">
          <mxGeometry width="30" height="30" as="geometry">
            <mxRectangle width="30" height="30" as="alternateBounds" />
          </mxGeometry>
        </mxCell>
        <mxCell id="UqoLNxq10_P1WbbZh7oi-18" value="email" style="shape=partialRectangle;connectable=0;fillColor=none;top=0;left=0;bottom=0;right=0;align=left;spacingLeft=6;overflow=hidden;" parent="UqoLNxq10_P1WbbZh7oi-16" vertex="1">
          <mxGeometry x="30" width="150" height="30" as="geometry">
            <mxRectangle width="150" height="30" as="alternateBounds" />
          </mxGeometry>
        </mxCell>
        <mxCell id="UqoLNxq10_P1WbbZh7oi-19" value="" style="shape=tableRow;horizontal=0;startSize=0;swimlaneHead=0;swimlaneBody=0;fillColor=none;collapsible=0;dropTarget=0;points=[[0,0.5],[1,0.5]];portConstraint=eastwest;top=0;left=0;right=0;bottom=0;" parent="UqoLNxq10_P1WbbZh7oi-6" vertex="1">
          <mxGeometry y="160" width="180" height="30" as="geometry" />
        </mxCell>
        <mxCell id="UqoLNxq10_P1WbbZh7oi-20" value="" style="shape=partialRectangle;connectable=0;fillColor=none;top=0;left=0;bottom=0;right=0;editable=1;overflow=hidden;" parent="UqoLNxq10_P1WbbZh7oi-19" vertex="1">
          <mxGeometry width="30" height="30" as="geometry">
            <mxRectangle width="30" height="30" as="alternateBounds" />
          </mxGeometry>
        </mxCell>
        <mxCell id="UqoLNxq10_P1WbbZh7oi-21" value="password" style="shape=partialRectangle;connectable=0;fillColor=none;top=0;left=0;bottom=0;right=0;align=left;spacingLeft=6;overflow=hidden;" parent="UqoLNxq10_P1WbbZh7oi-19" vertex="1">
          <mxGeometry x="30" width="150" height="30" as="geometry">
            <mxRectangle width="150" height="30" as="alternateBounds" />
          </mxGeometry>
        </mxCell>
        <mxCell id="UqoLNxq10_P1WbbZh7oi-37" value="" style="shape=tableRow;horizontal=0;startSize=0;swimlaneHead=0;swimlaneBody=0;fillColor=none;collapsible=0;dropTarget=0;points=[[0,0.5],[1,0.5]];portConstraint=eastwest;top=0;left=0;right=0;bottom=0;" parent="UqoLNxq10_P1WbbZh7oi-6" vertex="1">
          <mxGeometry y="190" width="180" height="30" as="geometry" />
        </mxCell>
        <mxCell id="UqoLNxq10_P1WbbZh7oi-38" value="" style="shape=partialRectangle;connectable=0;fillColor=none;top=0;left=0;bottom=0;right=0;editable=1;overflow=hidden;" parent="UqoLNxq10_P1WbbZh7oi-37" vertex="1">
          <mxGeometry width="30" height="30" as="geometry">
            <mxRectangle width="30" height="30" as="alternateBounds" />
          </mxGeometry>
        </mxCell>
        <mxCell id="UqoLNxq10_P1WbbZh7oi-39" value="phone" style="shape=partialRectangle;connectable=0;fillColor=none;top=0;left=0;bottom=0;right=0;align=left;spacingLeft=6;overflow=hidden;" parent="UqoLNxq10_P1WbbZh7oi-37" vertex="1">
          <mxGeometry x="30" width="150" height="30" as="geometry">
            <mxRectangle width="150" height="30" as="alternateBounds" />
          </mxGeometry>
        </mxCell>
        <mxCell id="UqoLNxq10_P1WbbZh7oi-40" value="" style="shape=tableRow;horizontal=0;startSize=0;swimlaneHead=0;swimlaneBody=0;fillColor=none;collapsible=0;dropTarget=0;points=[[0,0.5],[1,0.5]];portConstraint=eastwest;top=0;left=0;right=0;bottom=0;" parent="UqoLNxq10_P1WbbZh7oi-6" vertex="1">
          <mxGeometry y="220" width="180" height="30" as="geometry" />
        </mxCell>
        <mxCell id="UqoLNxq10_P1WbbZh7oi-41" value="" style="shape=partialRectangle;connectable=0;fillColor=none;top=0;left=0;bottom=0;right=0;editable=1;overflow=hidden;" parent="UqoLNxq10_P1WbbZh7oi-40" vertex="1">
          <mxGeometry width="30" height="30" as="geometry">
            <mxRectangle width="30" height="30" as="alternateBounds" />
          </mxGeometry>
        </mxCell>
        <mxCell id="UqoLNxq10_P1WbbZh7oi-42" value="birthday" style="shape=partialRectangle;connectable=0;fillColor=none;top=0;left=0;bottom=0;right=0;align=left;spacingLeft=6;overflow=hidden;" parent="UqoLNxq10_P1WbbZh7oi-40" vertex="1">
          <mxGeometry x="30" width="150" height="30" as="geometry">
            <mxRectangle width="150" height="30" as="alternateBounds" />
          </mxGeometry>
        </mxCell>
        <mxCell id="UqoLNxq10_P1WbbZh7oi-43" value="" style="shape=tableRow;horizontal=0;startSize=0;swimlaneHead=0;swimlaneBody=0;fillColor=none;collapsible=0;dropTarget=0;points=[[0,0.5],[1,0.5]];portConstraint=eastwest;top=0;left=0;right=0;bottom=0;" parent="UqoLNxq10_P1WbbZh7oi-6" vertex="1">
          <mxGeometry y="250" width="180" height="30" as="geometry" />
        </mxCell>
        <mxCell id="UqoLNxq10_P1WbbZh7oi-44" value="" style="shape=partialRectangle;connectable=0;fillColor=none;top=0;left=0;bottom=0;right=0;editable=1;overflow=hidden;" parent="UqoLNxq10_P1WbbZh7oi-43" vertex="1">
          <mxGeometry width="30" height="30" as="geometry">
            <mxRectangle width="30" height="30" as="alternateBounds" />
          </mxGeometry>
        </mxCell>
        <mxCell id="UqoLNxq10_P1WbbZh7oi-45" value="role" style="shape=partialRectangle;connectable=0;fillColor=none;top=0;left=0;bottom=0;right=0;align=left;spacingLeft=6;overflow=hidden;" parent="UqoLNxq10_P1WbbZh7oi-43" vertex="1">
          <mxGeometry x="30" width="150" height="30" as="geometry">
            <mxRectangle width="150" height="30" as="alternateBounds" />
          </mxGeometry>
        </mxCell>
        <mxCell id="UqoLNxq10_P1WbbZh7oi-70" value="" style="shape=tableRow;horizontal=0;startSize=0;swimlaneHead=0;swimlaneBody=0;fillColor=none;collapsible=0;dropTarget=0;points=[[0,0.5],[1,0.5]];portConstraint=eastwest;top=0;left=0;right=0;bottom=0;" parent="UqoLNxq10_P1WbbZh7oi-6" vertex="1">
          <mxGeometry y="280" width="180" height="30" as="geometry" />
        </mxCell>
        <mxCell id="UqoLNxq10_P1WbbZh7oi-71" value="" style="shape=partialRectangle;connectable=0;fillColor=none;top=0;left=0;bottom=0;right=0;editable=1;overflow=hidden;" parent="UqoLNxq10_P1WbbZh7oi-70" vertex="1">
          <mxGeometry width="30" height="30" as="geometry">
            <mxRectangle width="30" height="30" as="alternateBounds" />
          </mxGeometry>
        </mxCell>
        <mxCell id="UqoLNxq10_P1WbbZh7oi-72" value="token" style="shape=partialRectangle;connectable=0;fillColor=none;top=0;left=0;bottom=0;right=0;align=left;spacingLeft=6;overflow=hidden;" parent="UqoLNxq10_P1WbbZh7oi-70" vertex="1">
          <mxGeometry x="30" width="150" height="30" as="geometry">
            <mxRectangle width="150" height="30" as="alternateBounds" />
          </mxGeometry>
        </mxCell>
        <mxCell id="UqoLNxq10_P1WbbZh7oi-76" value="YES" style="edgeStyle=orthogonalEdgeStyle;rounded=0;orthogonalLoop=1;jettySize=auto;html=1;entryX=0.5;entryY=0;entryDx=0;entryDy=0;" parent="1" source="UqoLNxq10_P1WbbZh7oi-73" target="UqoLNxq10_P1WbbZh7oi-75" edge="1">
          <mxGeometry relative="1" as="geometry" />
        </mxCell>
        <mxCell id="UqoLNxq10_P1WbbZh7oi-79" style="edgeStyle=orthogonalEdgeStyle;rounded=0;orthogonalLoop=1;jettySize=auto;html=1;entryX=-0.017;entryY=0.037;entryDx=0;entryDy=0;entryPerimeter=0;" parent="1" source="UqoLNxq10_P1WbbZh7oi-73" target="UqoLNxq10_P1WbbZh7oi-6" edge="1">
          <mxGeometry relative="1" as="geometry">
            <mxPoint x="580" y="50" as="targetPoint" />
            <Array as="points">
              <mxPoint x="230" y="50" />
              <mxPoint x="580" y="50" />
              <mxPoint x="580" y="49" />
            </Array>
          </mxGeometry>
        </mxCell>
        <mxCell id="UqoLNxq10_P1WbbZh7oi-80" value="select user by username" style="edgeLabel;html=1;align=center;verticalAlign=middle;resizable=0;points=[];" parent="UqoLNxq10_P1WbbZh7oi-79" vertex="1" connectable="0">
          <mxGeometry x="0.3054" relative="1" as="geometry">
            <mxPoint x="-27" as="offset" />
          </mxGeometry>
        </mxCell>
        <mxCell id="UqoLNxq10_P1WbbZh7oi-87" style="edgeStyle=orthogonalEdgeStyle;rounded=0;orthogonalLoop=1;jettySize=auto;html=1;" parent="1" source="UqoLNxq10_P1WbbZh7oi-73" target="UqoLNxq10_P1WbbZh7oi-85" edge="1">
          <mxGeometry relative="1" as="geometry" />
        </mxCell>
        <mxCell id="UqoLNxq10_P1WbbZh7oi-73" value="check username is exists" style="rounded=0;whiteSpace=wrap;html=1;" parent="1" vertex="1">
          <mxGeometry x="185" y="100" width="120" height="60" as="geometry" />
        </mxCell>
        <mxCell id="UqoLNxq10_P1WbbZh7oi-77" style="edgeStyle=orthogonalEdgeStyle;rounded=0;orthogonalLoop=1;jettySize=auto;html=1;" parent="1" source="UqoLNxq10_P1WbbZh7oi-75" target="UqoLNxq10_P1WbbZh7oi-1" edge="1">
          <mxGeometry relative="1" as="geometry">
            <Array as="points">
              <mxPoint x="225" y="290" />
            </Array>
          </mxGeometry>
        </mxCell>
        <mxCell id="UqoLNxq10_P1WbbZh7oi-75" value="400 Bad Request&lt;br&gt;Username already taken" style="rounded=1;whiteSpace=wrap;html=1;fillColor=#f8cecc;strokeColor=#b85450;" parent="1" vertex="1">
          <mxGeometry x="185" y="200" width="120" height="60" as="geometry" />
        </mxCell>
        <mxCell id="UqoLNxq10_P1WbbZh7oi-90" style="edgeStyle=orthogonalEdgeStyle;rounded=0;orthogonalLoop=1;jettySize=auto;html=1;" parent="1" source="UqoLNxq10_P1WbbZh7oi-85" target="UqoLNxq10_P1WbbZh7oi-89" edge="1">
          <mxGeometry relative="1" as="geometry" />
        </mxCell>
        <mxCell id="UqoLNxq10_P1WbbZh7oi-85" value="generate &lt;br&gt;confirmation code" style="rounded=1;whiteSpace=wrap;html=1;" parent="1" vertex="1">
          <mxGeometry x="375" y="100" width="120" height="60" as="geometry" />
        </mxCell>
        <mxCell id="UqoLNxq10_P1WbbZh7oi-128" style="edgeStyle=orthogonalEdgeStyle;rounded=0;orthogonalLoop=1;jettySize=auto;html=1;entryX=0.5;entryY=0;entryDx=0;entryDy=0;" parent="1" source="UqoLNxq10_P1WbbZh7oi-89" target="UqoLNxq10_P1WbbZh7oi-127" edge="1">
          <mxGeometry relative="1" as="geometry" />
        </mxCell>
        <mxCell id="UqoLNxq10_P1WbbZh7oi-137" style="edgeStyle=orthogonalEdgeStyle;rounded=0;orthogonalLoop=1;jettySize=auto;html=1;entryX=0;entryY=0.667;entryDx=0;entryDy=0;entryPerimeter=0;" parent="1" source="UqoLNxq10_P1WbbZh7oi-89" target="UqoLNxq10_P1WbbZh7oi-16" edge="1">
          <mxGeometry relative="1" as="geometry" />
        </mxCell>
        <mxCell id="UqoLNxq10_P1WbbZh7oi-138" value="insert into" style="edgeLabel;html=1;align=center;verticalAlign=middle;resizable=0;points=[];" parent="UqoLNxq10_P1WbbZh7oi-137" vertex="1" connectable="0">
          <mxGeometry x="-0.0947" relative="1" as="geometry">
            <mxPoint as="offset" />
          </mxGeometry>
        </mxCell>
        <mxCell id="UqoLNxq10_P1WbbZh7oi-89" value="insert user data to table" style="rounded=1;whiteSpace=wrap;html=1;" parent="1" vertex="1">
          <mxGeometry x="375" y="190" width="120" height="60" as="geometry" />
        </mxCell>
        <mxCell id="UqoLNxq10_P1WbbZh7oi-121" value="" style="shape=tableRow;horizontal=0;startSize=0;swimlaneHead=0;swimlaneBody=0;fillColor=none;collapsible=0;dropTarget=0;points=[[0,0.5],[1,0.5]];portConstraint=eastwest;top=0;left=0;right=0;bottom=0;" parent="1" vertex="1">
          <mxGeometry x="590" y="380" width="180" height="30" as="geometry" />
        </mxCell>
        <mxCell id="UqoLNxq10_P1WbbZh7oi-122" value="" style="shape=partialRectangle;connectable=0;fillColor=none;top=0;left=0;bottom=0;right=0;editable=1;overflow=hidden;" parent="UqoLNxq10_P1WbbZh7oi-121" vertex="1">
          <mxGeometry width="30" height="30" as="geometry">
            <mxRectangle width="30" height="30" as="alternateBounds" />
          </mxGeometry>
        </mxCell>
        <mxCell id="UqoLNxq10_P1WbbZh7oi-126" value="is_confirmed" style="shape=partialRectangle;connectable=0;fillColor=none;top=0;left=0;bottom=0;right=0;align=left;spacingLeft=6;overflow=hidden;" parent="1" vertex="1">
          <mxGeometry x="620" y="340" width="150" height="30" as="geometry">
            <mxRectangle width="150" height="30" as="alternateBounds" />
          </mxGeometry>
        </mxCell>
        <mxCell id="UqoLNxq10_P1WbbZh7oi-131" style="edgeStyle=orthogonalEdgeStyle;rounded=0;orthogonalLoop=1;jettySize=auto;html=1;" parent="1" source="UqoLNxq10_P1WbbZh7oi-127" target="UqoLNxq10_P1WbbZh7oi-130" edge="1">
          <mxGeometry relative="1" as="geometry" />
        </mxCell>
        <mxCell id="UqoLNxq10_P1WbbZh7oi-173" style="edgeStyle=orthogonalEdgeStyle;rounded=0;orthogonalLoop=1;jettySize=auto;html=1;entryX=0.826;entryY=-0.011;entryDx=0;entryDy=0;entryPerimeter=0;" parent="1" source="UqoLNxq10_P1WbbZh7oi-127" target="UqoLNxq10_P1WbbZh7oi-144" edge="1">
          <mxGeometry relative="1" as="geometry">
            <Array as="points">
              <mxPoint x="552" y="310" />
            </Array>
          </mxGeometry>
        </mxCell>
        <mxCell id="UqoLNxq10_P1WbbZh7oi-175" value="save verificationId and code" style="edgeLabel;html=1;align=center;verticalAlign=middle;resizable=0;points=[];" parent="UqoLNxq10_P1WbbZh7oi-173" vertex="1" connectable="0">
          <mxGeometry x="0.2833" y="-3" relative="1" as="geometry">
            <mxPoint y="35" as="offset" />
          </mxGeometry>
        </mxCell>
        <mxCell id="UqoLNxq10_P1WbbZh7oi-127" value="generate verificationId, &lt;br&gt;store to map with code" style="rounded=1;whiteSpace=wrap;html=1;" parent="1" vertex="1">
          <mxGeometry x="355" y="280" width="165" height="60" as="geometry" />
        </mxCell>
        <mxCell id="UqoLNxq10_P1WbbZh7oi-133" style="edgeStyle=orthogonalEdgeStyle;rounded=0;orthogonalLoop=1;jettySize=auto;html=1;" parent="1" source="UqoLNxq10_P1WbbZh7oi-130" target="UqoLNxq10_P1WbbZh7oi-132" edge="1">
          <mxGeometry relative="1" as="geometry" />
        </mxCell>
        <mxCell id="UqoLNxq10_P1WbbZh7oi-130" value="send generated to email" style="rounded=1;whiteSpace=wrap;html=1;" parent="1" vertex="1">
          <mxGeometry x="355" y="380" width="160" height="60" as="geometry" />
        </mxCell>
        <mxCell id="UqoLNxq10_P1WbbZh7oi-134" style="edgeStyle=orthogonalEdgeStyle;rounded=0;orthogonalLoop=1;jettySize=auto;html=1;" parent="1" source="UqoLNxq10_P1WbbZh7oi-132" target="UqoLNxq10_P1WbbZh7oi-1" edge="1">
          <mxGeometry relative="1" as="geometry" />
        </mxCell>
        <mxCell id="UqoLNxq10_P1WbbZh7oi-132" value="200 OK&lt;br&gt;Send verification id and code to client" style="rounded=1;whiteSpace=wrap;html=1;fillColor=#d5e8d4;strokeColor=#82b366;" parent="1" vertex="1">
          <mxGeometry x="175" y="380" width="120" height="60" as="geometry" />
        </mxCell>
        <mxCell id="UqoLNxq10_P1WbbZh7oi-143" style="edgeStyle=orthogonalEdgeStyle;rounded=0;orthogonalLoop=1;jettySize=auto;html=1;entryX=0.5;entryY=1;entryDx=0;entryDy=0;" parent="1" source="UqoLNxq10_P1WbbZh7oi-139" target="UqoLNxq10_P1WbbZh7oi-142" edge="1">
          <mxGeometry relative="1" as="geometry" />
        </mxCell>
        <mxCell id="UqoLNxq10_P1WbbZh7oi-139" value="Actor" style="shape=umlActor;verticalLabelPosition=bottom;verticalAlign=top;html=1;outlineConnect=0;fillColor=#d5e8d4;strokeColor=#82b366;" parent="1" vertex="1">
          <mxGeometry x="95" y="930" width="30" height="60" as="geometry" />
        </mxCell>
        <mxCell id="UqoLNxq10_P1WbbZh7oi-148" style="edgeStyle=orthogonalEdgeStyle;rounded=0;orthogonalLoop=1;jettySize=auto;html=1;entryX=0;entryY=0.5;entryDx=0;entryDy=0;" parent="1" source="UqoLNxq10_P1WbbZh7oi-142" target="UqoLNxq10_P1WbbZh7oi-147" edge="1">
          <mxGeometry relative="1" as="geometry" />
        </mxCell>
        <mxCell id="UqoLNxq10_P1WbbZh7oi-142" value="POST /verify" style="rounded=1;whiteSpace=wrap;html=1;fillColor=#dae8fc;strokeColor=#6c8ebf;" parent="1" vertex="1">
          <mxGeometry x="50" y="840" width="120" height="30" as="geometry" />
        </mxCell>
        <mxCell id="UqoLNxq10_P1WbbZh7oi-144" value="Verification Map" style="swimlane;childLayout=stackLayout;horizontal=1;startSize=30;horizontalStack=0;rounded=1;fontSize=14;fontStyle=0;strokeWidth=2;resizeParent=0;resizeLast=1;shadow=0;dashed=0;align=center;" parent="1" vertex="1">
          <mxGeometry x="420" y="540" width="160" height="120" as="geometry" />
        </mxCell>
        <mxCell id="UqoLNxq10_P1WbbZh7oi-145" value="[verificationId]: code" style="align=left;strokeColor=none;fillColor=none;spacingLeft=4;fontSize=12;verticalAlign=top;resizable=0;rotatable=0;part=1;" parent="UqoLNxq10_P1WbbZh7oi-144" vertex="1">
          <mxGeometry y="30" width="160" height="90" as="geometry" />
        </mxCell>
        <mxCell id="UqoLNxq10_P1WbbZh7oi-152" style="edgeStyle=orthogonalEdgeStyle;rounded=0;orthogonalLoop=1;jettySize=auto;html=1;entryX=0;entryY=0.5;entryDx=0;entryDy=0;" parent="1" source="UqoLNxq10_P1WbbZh7oi-147" target="UqoLNxq10_P1WbbZh7oi-145" edge="1">
          <mxGeometry relative="1" as="geometry" />
        </mxCell>
        <mxCell id="UqoLNxq10_P1WbbZh7oi-162" value="find code by verifcation id" style="edgeLabel;html=1;align=center;verticalAlign=middle;resizable=0;points=[];" parent="UqoLNxq10_P1WbbZh7oi-152" vertex="1" connectable="0">
          <mxGeometry x="-0.1364" y="1" relative="1" as="geometry">
            <mxPoint as="offset" />
          </mxGeometry>
        </mxCell>
        <mxCell id="UqoLNxq10_P1WbbZh7oi-157" style="edgeStyle=orthogonalEdgeStyle;rounded=0;orthogonalLoop=1;jettySize=auto;html=1;" parent="1" source="UqoLNxq10_P1WbbZh7oi-147" target="UqoLNxq10_P1WbbZh7oi-156" edge="1">
          <mxGeometry relative="1" as="geometry" />
        </mxCell>
        <mxCell id="UqoLNxq10_P1WbbZh7oi-158" value="YES" style="edgeLabel;html=1;align=center;verticalAlign=middle;resizable=0;points=[];" parent="UqoLNxq10_P1WbbZh7oi-157" vertex="1" connectable="0">
          <mxGeometry x="0.2667" y="1" relative="1" as="geometry">
            <mxPoint as="offset" />
          </mxGeometry>
        </mxCell>
        <mxCell id="UqoLNxq10_P1WbbZh7oi-161" value="NO" style="edgeStyle=orthogonalEdgeStyle;rounded=0;orthogonalLoop=1;jettySize=auto;html=1;entryX=0.5;entryY=1;entryDx=0;entryDy=0;" parent="1" source="UqoLNxq10_P1WbbZh7oi-147" target="UqoLNxq10_P1WbbZh7oi-159" edge="1">
          <mxGeometry relative="1" as="geometry" />
        </mxCell>
        <mxCell id="UqoLNxq10_P1WbbZh7oi-147" value="find code by verification id&lt;br&gt;If exists" style="rounded=1;whiteSpace=wrap;html=1;" parent="1" vertex="1">
          <mxGeometry x="205" y="825" width="120" height="60" as="geometry" />
        </mxCell>
        <mxCell id="UqoLNxq10_P1WbbZh7oi-164" style="edgeStyle=orthogonalEdgeStyle;rounded=0;orthogonalLoop=1;jettySize=auto;html=1;" parent="1" source="UqoLNxq10_P1WbbZh7oi-156" target="UqoLNxq10_P1WbbZh7oi-163" edge="1">
          <mxGeometry relative="1" as="geometry" />
        </mxCell>
        <mxCell id="UqoLNxq10_P1WbbZh7oi-165" value="No" style="edgeLabel;html=1;align=center;verticalAlign=middle;resizable=0;points=[];" parent="UqoLNxq10_P1WbbZh7oi-164" vertex="1" connectable="0">
          <mxGeometry x="-0.2148" y="1" relative="1" as="geometry">
            <mxPoint as="offset" />
          </mxGeometry>
        </mxCell>
        <mxCell id="UqoLNxq10_P1WbbZh7oi-168" value="Yes" style="edgeStyle=orthogonalEdgeStyle;rounded=0;orthogonalLoop=1;jettySize=auto;html=1;entryX=0;entryY=0.5;entryDx=0;entryDy=0;" parent="1" source="UqoLNxq10_P1WbbZh7oi-156" target="UqoLNxq10_P1WbbZh7oi-167" edge="1">
          <mxGeometry relative="1" as="geometry" />
        </mxCell>
        <mxCell id="UqoLNxq10_P1WbbZh7oi-156" value="compare user code and stored code" style="rounded=1;whiteSpace=wrap;html=1;" parent="1" vertex="1">
          <mxGeometry x="424" y="825" width="120" height="60" as="geometry" />
        </mxCell>
        <mxCell id="UqoLNxq10_P1WbbZh7oi-160" style="edgeStyle=orthogonalEdgeStyle;rounded=0;orthogonalLoop=1;jettySize=auto;html=1;" parent="1" source="UqoLNxq10_P1WbbZh7oi-159" target="UqoLNxq10_P1WbbZh7oi-139" edge="1">
          <mxGeometry x="0.0909" y="-100" relative="1" as="geometry">
            <Array as="points">
              <mxPoint x="30" y="725" />
              <mxPoint x="30" y="960" />
            </Array>
            <mxPoint as="offset" />
          </mxGeometry>
        </mxCell>
        <mxCell id="UqoLNxq10_P1WbbZh7oi-159" value="403 Bad Request&lt;br&gt;wrong verification code" style="rounded=1;whiteSpace=wrap;html=1;fillColor=#f8cecc;strokeColor=#b85450;" parent="1" vertex="1">
          <mxGeometry x="160" y="695" width="120" height="60" as="geometry" />
        </mxCell>
        <mxCell id="UqoLNxq10_P1WbbZh7oi-166" style="edgeStyle=orthogonalEdgeStyle;rounded=0;orthogonalLoop=1;jettySize=auto;html=1;" parent="1" source="UqoLNxq10_P1WbbZh7oi-163" target="UqoLNxq10_P1WbbZh7oi-139" edge="1">
          <mxGeometry relative="1" as="geometry" />
        </mxCell>
        <mxCell id="UqoLNxq10_P1WbbZh7oi-163" value="403 Bad Request&lt;br style=&quot;border-color: var(--border-color);&quot;&gt;wrong verification code" style="rounded=1;whiteSpace=wrap;html=1;fillColor=#f8cecc;strokeColor=#b85450;" parent="1" vertex="1">
          <mxGeometry x="325" y="930" width="120" height="60" as="geometry" />
        </mxCell>
        <mxCell id="UqoLNxq10_P1WbbZh7oi-171" style="edgeStyle=orthogonalEdgeStyle;rounded=0;orthogonalLoop=1;jettySize=auto;html=1;entryX=0.5;entryY=0;entryDx=0;entryDy=0;" parent="1" source="UqoLNxq10_P1WbbZh7oi-167" target="UqoLNxq10_P1WbbZh7oi-170" edge="1">
          <mxGeometry relative="1" as="geometry" />
        </mxCell>
        <mxCell id="UqoLNxq10_P1WbbZh7oi-178" style="edgeStyle=orthogonalEdgeStyle;rounded=0;orthogonalLoop=1;jettySize=auto;html=1;" parent="1" source="UqoLNxq10_P1WbbZh7oi-167" edge="1">
          <mxGeometry relative="1" as="geometry">
            <mxPoint x="680" y="420" as="targetPoint" />
          </mxGeometry>
        </mxCell>
        <mxCell id="UqoLNxq10_P1WbbZh7oi-179" value="update is_confirmed and token" style="edgeLabel;html=1;align=center;verticalAlign=middle;resizable=0;points=[];" parent="UqoLNxq10_P1WbbZh7oi-178" vertex="1" connectable="0">
          <mxGeometry x="-0.1779" y="-1" relative="1" as="geometry">
            <mxPoint as="offset" />
          </mxGeometry>
        </mxCell>
        <mxCell id="UqoLNxq10_P1WbbZh7oi-167" value="generate token, update is_confirmed and token fields" style="rounded=1;whiteSpace=wrap;html=1;" parent="1" vertex="1">
          <mxGeometry x="620" y="825" width="120" height="60" as="geometry" />
        </mxCell>
        <mxCell id="UqoLNxq10_P1WbbZh7oi-172" style="edgeStyle=orthogonalEdgeStyle;rounded=0;orthogonalLoop=1;jettySize=auto;html=1;" parent="1" source="UqoLNxq10_P1WbbZh7oi-170" target="UqoLNxq10_P1WbbZh7oi-139" edge="1">
          <mxGeometry relative="1" as="geometry">
            <Array as="points">
              <mxPoint x="680" y="1030" />
              <mxPoint x="110" y="1030" />
            </Array>
          </mxGeometry>
        </mxCell>
        <mxCell id="UqoLNxq10_P1WbbZh7oi-170" value="200 OK&lt;br&gt;Successfuly registered" style="rounded=1;whiteSpace=wrap;html=1;fillColor=#d5e8d4;strokeColor=#82b366;" parent="1" vertex="1">
          <mxGeometry x="620" y="930" width="120" height="60" as="geometry" />
        </mxCell>
      </root>
    </mxGraphModel>
  </diagram>
  <diagram id="zMQlUynSHbbpmlHrMymJ" name="Login">
    <mxGraphModel dx="954" dy="537" grid="1" gridSize="10" guides="1" tooltips="1" connect="1" arrows="1" fold="1" page="1" pageScale="1" pageWidth="827" pageHeight="1169" math="0" shadow="0">
      <root>
        <mxCell id="0" />
        <mxCell id="1" parent="0" />
        <mxCell id="Uub1bpQBf8IHmAAVOYTw-31" style="edgeStyle=orthogonalEdgeStyle;rounded=0;orthogonalLoop=1;jettySize=auto;html=1;" parent="1" source="VXRjtuLJzrn9sCzOnKX1-1" target="Uub1bpQBf8IHmAAVOYTw-30" edge="1">
          <mxGeometry relative="1" as="geometry" />
        </mxCell>
        <mxCell id="VXRjtuLJzrn9sCzOnKX1-1" value="POST /login" style="rounded=1;whiteSpace=wrap;html=1;fillColor=#dae8fc;strokeColor=#6c8ebf;" parent="1" vertex="1">
          <mxGeometry x="50" y="160" width="120" height="30" as="geometry" />
        </mxCell>
        <mxCell id="VXRjtuLJzrn9sCzOnKX1-4" style="edgeStyle=orthogonalEdgeStyle;rounded=0;orthogonalLoop=1;jettySize=auto;html=1;entryX=0.5;entryY=1;entryDx=0;entryDy=0;" parent="1" source="VXRjtuLJzrn9sCzOnKX1-2" target="VXRjtuLJzrn9sCzOnKX1-1" edge="1">
          <mxGeometry relative="1" as="geometry" />
        </mxCell>
        <mxCell id="VXRjtuLJzrn9sCzOnKX1-2" value="Actor" style="shape=umlActor;verticalLabelPosition=bottom;verticalAlign=top;html=1;outlineConnect=0;fillColor=#d5e8d4;strokeColor=#82b366;" parent="1" vertex="1">
          <mxGeometry x="95" y="280" width="30" height="60" as="geometry" />
        </mxCell>
        <mxCell id="Uub1bpQBf8IHmAAVOYTw-1" value="Users" style="shape=table;startSize=30;container=1;collapsible=1;childLayout=tableLayout;fixedRows=1;rowLines=0;fontStyle=1;align=center;resizeLast=1;" parent="1" vertex="1">
          <mxGeometry x="590" y="35" width="180" height="335" as="geometry" />
        </mxCell>
        <mxCell id="Uub1bpQBf8IHmAAVOYTw-2" value="" style="shape=tableRow;horizontal=0;startSize=0;swimlaneHead=0;swimlaneBody=0;fillColor=none;collapsible=0;dropTarget=0;points=[[0,0.5],[1,0.5]];portConstraint=eastwest;top=0;left=0;right=0;bottom=1;" parent="Uub1bpQBf8IHmAAVOYTw-1" vertex="1">
          <mxGeometry y="30" width="180" height="40" as="geometry" />
        </mxCell>
        <mxCell id="Uub1bpQBf8IHmAAVOYTw-3" value="PK" style="shape=partialRectangle;connectable=0;fillColor=none;top=0;left=0;bottom=0;right=0;fontStyle=1;overflow=hidden;" parent="Uub1bpQBf8IHmAAVOYTw-2" vertex="1">
          <mxGeometry width="30" height="40" as="geometry">
            <mxRectangle width="30" height="40" as="alternateBounds" />
          </mxGeometry>
        </mxCell>
        <mxCell id="Uub1bpQBf8IHmAAVOYTw-4" value="id" style="shape=partialRectangle;connectable=0;fillColor=none;top=0;left=0;bottom=0;right=0;align=left;spacingLeft=6;fontStyle=5;overflow=hidden;" parent="Uub1bpQBf8IHmAAVOYTw-2" vertex="1">
          <mxGeometry x="30" width="150" height="40" as="geometry">
            <mxRectangle width="150" height="40" as="alternateBounds" />
          </mxGeometry>
        </mxCell>
        <mxCell id="Uub1bpQBf8IHmAAVOYTw-5" value="" style="shape=tableRow;horizontal=0;startSize=0;swimlaneHead=0;swimlaneBody=0;fillColor=none;collapsible=0;dropTarget=0;points=[[0,0.5],[1,0.5]];portConstraint=eastwest;top=0;left=0;right=0;bottom=0;" parent="Uub1bpQBf8IHmAAVOYTw-1" vertex="1">
          <mxGeometry y="70" width="180" height="30" as="geometry" />
        </mxCell>
        <mxCell id="Uub1bpQBf8IHmAAVOYTw-6" value="" style="shape=partialRectangle;connectable=0;fillColor=none;top=0;left=0;bottom=0;right=0;editable=1;overflow=hidden;" parent="Uub1bpQBf8IHmAAVOYTw-5" vertex="1">
          <mxGeometry width="30" height="30" as="geometry">
            <mxRectangle width="30" height="30" as="alternateBounds" />
          </mxGeometry>
        </mxCell>
        <mxCell id="Uub1bpQBf8IHmAAVOYTw-7" value="name" style="shape=partialRectangle;connectable=0;fillColor=none;top=0;left=0;bottom=0;right=0;align=left;spacingLeft=6;overflow=hidden;" parent="Uub1bpQBf8IHmAAVOYTw-5" vertex="1">
          <mxGeometry x="30" width="150" height="30" as="geometry">
            <mxRectangle width="150" height="30" as="alternateBounds" />
          </mxGeometry>
        </mxCell>
        <mxCell id="Uub1bpQBf8IHmAAVOYTw-8" value="" style="shape=tableRow;horizontal=0;startSize=0;swimlaneHead=0;swimlaneBody=0;fillColor=none;collapsible=0;dropTarget=0;points=[[0,0.5],[1,0.5]];portConstraint=eastwest;top=0;left=0;right=0;bottom=0;" parent="Uub1bpQBf8IHmAAVOYTw-1" vertex="1">
          <mxGeometry y="100" width="180" height="30" as="geometry" />
        </mxCell>
        <mxCell id="Uub1bpQBf8IHmAAVOYTw-9" value="" style="shape=partialRectangle;connectable=0;fillColor=none;top=0;left=0;bottom=0;right=0;editable=1;overflow=hidden;" parent="Uub1bpQBf8IHmAAVOYTw-8" vertex="1">
          <mxGeometry width="30" height="30" as="geometry">
            <mxRectangle width="30" height="30" as="alternateBounds" />
          </mxGeometry>
        </mxCell>
        <mxCell id="Uub1bpQBf8IHmAAVOYTw-10" value="surname" style="shape=partialRectangle;connectable=0;fillColor=none;top=0;left=0;bottom=0;right=0;align=left;spacingLeft=6;overflow=hidden;" parent="Uub1bpQBf8IHmAAVOYTw-8" vertex="1">
          <mxGeometry x="30" width="150" height="30" as="geometry">
            <mxRectangle width="150" height="30" as="alternateBounds" />
          </mxGeometry>
        </mxCell>
        <mxCell id="Uub1bpQBf8IHmAAVOYTw-11" value="" style="shape=tableRow;horizontal=0;startSize=0;swimlaneHead=0;swimlaneBody=0;fillColor=none;collapsible=0;dropTarget=0;points=[[0,0.5],[1,0.5]];portConstraint=eastwest;top=0;left=0;right=0;bottom=0;" parent="Uub1bpQBf8IHmAAVOYTw-1" vertex="1">
          <mxGeometry y="130" width="180" height="30" as="geometry" />
        </mxCell>
        <mxCell id="Uub1bpQBf8IHmAAVOYTw-12" value="" style="shape=partialRectangle;connectable=0;fillColor=none;top=0;left=0;bottom=0;right=0;editable=1;overflow=hidden;" parent="Uub1bpQBf8IHmAAVOYTw-11" vertex="1">
          <mxGeometry width="30" height="30" as="geometry">
            <mxRectangle width="30" height="30" as="alternateBounds" />
          </mxGeometry>
        </mxCell>
        <mxCell id="Uub1bpQBf8IHmAAVOYTw-13" value="email" style="shape=partialRectangle;connectable=0;fillColor=none;top=0;left=0;bottom=0;right=0;align=left;spacingLeft=6;overflow=hidden;" parent="Uub1bpQBf8IHmAAVOYTw-11" vertex="1">
          <mxGeometry x="30" width="150" height="30" as="geometry">
            <mxRectangle width="150" height="30" as="alternateBounds" />
          </mxGeometry>
        </mxCell>
        <mxCell id="Uub1bpQBf8IHmAAVOYTw-14" value="" style="shape=tableRow;horizontal=0;startSize=0;swimlaneHead=0;swimlaneBody=0;fillColor=none;collapsible=0;dropTarget=0;points=[[0,0.5],[1,0.5]];portConstraint=eastwest;top=0;left=0;right=0;bottom=0;" parent="Uub1bpQBf8IHmAAVOYTw-1" vertex="1">
          <mxGeometry y="160" width="180" height="30" as="geometry" />
        </mxCell>
        <mxCell id="Uub1bpQBf8IHmAAVOYTw-15" value="" style="shape=partialRectangle;connectable=0;fillColor=none;top=0;left=0;bottom=0;right=0;editable=1;overflow=hidden;" parent="Uub1bpQBf8IHmAAVOYTw-14" vertex="1">
          <mxGeometry width="30" height="30" as="geometry">
            <mxRectangle width="30" height="30" as="alternateBounds" />
          </mxGeometry>
        </mxCell>
        <mxCell id="Uub1bpQBf8IHmAAVOYTw-16" value="password" style="shape=partialRectangle;connectable=0;fillColor=none;top=0;left=0;bottom=0;right=0;align=left;spacingLeft=6;overflow=hidden;" parent="Uub1bpQBf8IHmAAVOYTw-14" vertex="1">
          <mxGeometry x="30" width="150" height="30" as="geometry">
            <mxRectangle width="150" height="30" as="alternateBounds" />
          </mxGeometry>
        </mxCell>
        <mxCell id="Uub1bpQBf8IHmAAVOYTw-17" value="" style="shape=tableRow;horizontal=0;startSize=0;swimlaneHead=0;swimlaneBody=0;fillColor=none;collapsible=0;dropTarget=0;points=[[0,0.5],[1,0.5]];portConstraint=eastwest;top=0;left=0;right=0;bottom=0;" parent="Uub1bpQBf8IHmAAVOYTw-1" vertex="1">
          <mxGeometry y="190" width="180" height="30" as="geometry" />
        </mxCell>
        <mxCell id="Uub1bpQBf8IHmAAVOYTw-18" value="" style="shape=partialRectangle;connectable=0;fillColor=none;top=0;left=0;bottom=0;right=0;editable=1;overflow=hidden;" parent="Uub1bpQBf8IHmAAVOYTw-17" vertex="1">
          <mxGeometry width="30" height="30" as="geometry">
            <mxRectangle width="30" height="30" as="alternateBounds" />
          </mxGeometry>
        </mxCell>
        <mxCell id="Uub1bpQBf8IHmAAVOYTw-19" value="phone" style="shape=partialRectangle;connectable=0;fillColor=none;top=0;left=0;bottom=0;right=0;align=left;spacingLeft=6;overflow=hidden;" parent="Uub1bpQBf8IHmAAVOYTw-17" vertex="1">
          <mxGeometry x="30" width="150" height="30" as="geometry">
            <mxRectangle width="150" height="30" as="alternateBounds" />
          </mxGeometry>
        </mxCell>
        <mxCell id="Uub1bpQBf8IHmAAVOYTw-20" value="" style="shape=tableRow;horizontal=0;startSize=0;swimlaneHead=0;swimlaneBody=0;fillColor=none;collapsible=0;dropTarget=0;points=[[0,0.5],[1,0.5]];portConstraint=eastwest;top=0;left=0;right=0;bottom=0;" parent="Uub1bpQBf8IHmAAVOYTw-1" vertex="1">
          <mxGeometry y="220" width="180" height="30" as="geometry" />
        </mxCell>
        <mxCell id="Uub1bpQBf8IHmAAVOYTw-21" value="" style="shape=partialRectangle;connectable=0;fillColor=none;top=0;left=0;bottom=0;right=0;editable=1;overflow=hidden;" parent="Uub1bpQBf8IHmAAVOYTw-20" vertex="1">
          <mxGeometry width="30" height="30" as="geometry">
            <mxRectangle width="30" height="30" as="alternateBounds" />
          </mxGeometry>
        </mxCell>
        <mxCell id="Uub1bpQBf8IHmAAVOYTw-22" value="birthday" style="shape=partialRectangle;connectable=0;fillColor=none;top=0;left=0;bottom=0;right=0;align=left;spacingLeft=6;overflow=hidden;" parent="Uub1bpQBf8IHmAAVOYTw-20" vertex="1">
          <mxGeometry x="30" width="150" height="30" as="geometry">
            <mxRectangle width="150" height="30" as="alternateBounds" />
          </mxGeometry>
        </mxCell>
        <mxCell id="Uub1bpQBf8IHmAAVOYTw-23" value="" style="shape=tableRow;horizontal=0;startSize=0;swimlaneHead=0;swimlaneBody=0;fillColor=none;collapsible=0;dropTarget=0;points=[[0,0.5],[1,0.5]];portConstraint=eastwest;top=0;left=0;right=0;bottom=0;" parent="Uub1bpQBf8IHmAAVOYTw-1" vertex="1">
          <mxGeometry y="250" width="180" height="30" as="geometry" />
        </mxCell>
        <mxCell id="Uub1bpQBf8IHmAAVOYTw-24" value="" style="shape=partialRectangle;connectable=0;fillColor=none;top=0;left=0;bottom=0;right=0;editable=1;overflow=hidden;" parent="Uub1bpQBf8IHmAAVOYTw-23" vertex="1">
          <mxGeometry width="30" height="30" as="geometry">
            <mxRectangle width="30" height="30" as="alternateBounds" />
          </mxGeometry>
        </mxCell>
        <mxCell id="Uub1bpQBf8IHmAAVOYTw-25" value="role" style="shape=partialRectangle;connectable=0;fillColor=none;top=0;left=0;bottom=0;right=0;align=left;spacingLeft=6;overflow=hidden;" parent="Uub1bpQBf8IHmAAVOYTw-23" vertex="1">
          <mxGeometry x="30" width="150" height="30" as="geometry">
            <mxRectangle width="150" height="30" as="alternateBounds" />
          </mxGeometry>
        </mxCell>
        <mxCell id="Uub1bpQBf8IHmAAVOYTw-26" value="" style="shape=tableRow;horizontal=0;startSize=0;swimlaneHead=0;swimlaneBody=0;fillColor=none;collapsible=0;dropTarget=0;points=[[0,0.5],[1,0.5]];portConstraint=eastwest;top=0;left=0;right=0;bottom=0;" parent="Uub1bpQBf8IHmAAVOYTw-1" vertex="1">
          <mxGeometry y="280" width="180" height="30" as="geometry" />
        </mxCell>
        <mxCell id="Uub1bpQBf8IHmAAVOYTw-27" value="" style="shape=partialRectangle;connectable=0;fillColor=none;top=0;left=0;bottom=0;right=0;editable=1;overflow=hidden;" parent="Uub1bpQBf8IHmAAVOYTw-26" vertex="1">
          <mxGeometry width="30" height="30" as="geometry">
            <mxRectangle width="30" height="30" as="alternateBounds" />
          </mxGeometry>
        </mxCell>
        <mxCell id="Uub1bpQBf8IHmAAVOYTw-28" value="token" style="shape=partialRectangle;connectable=0;fillColor=none;top=0;left=0;bottom=0;right=0;align=left;spacingLeft=6;overflow=hidden;" parent="Uub1bpQBf8IHmAAVOYTw-26" vertex="1">
          <mxGeometry x="30" width="150" height="30" as="geometry">
            <mxRectangle width="150" height="30" as="alternateBounds" />
          </mxGeometry>
        </mxCell>
        <mxCell id="Uub1bpQBf8IHmAAVOYTw-29" value="is_confirmed" style="shape=partialRectangle;connectable=0;fillColor=none;top=0;left=0;bottom=0;right=0;align=left;spacingLeft=6;overflow=hidden;" parent="1" vertex="1">
          <mxGeometry x="620" y="340" width="150" height="30" as="geometry">
            <mxRectangle width="150" height="30" as="alternateBounds" />
          </mxGeometry>
        </mxCell>
        <mxCell id="Uub1bpQBf8IHmAAVOYTw-33" style="edgeStyle=orthogonalEdgeStyle;rounded=0;orthogonalLoop=1;jettySize=auto;html=1;entryX=-0.028;entryY=0.183;entryDx=0;entryDy=0;entryPerimeter=0;" parent="1" source="Uub1bpQBf8IHmAAVOYTw-30" target="Uub1bpQBf8IHmAAVOYTw-8" edge="1">
          <mxGeometry relative="1" as="geometry" />
        </mxCell>
        <mxCell id="Uub1bpQBf8IHmAAVOYTw-34" value="find by username" style="edgeLabel;html=1;align=center;verticalAlign=middle;resizable=0;points=[];" parent="Uub1bpQBf8IHmAAVOYTw-33" vertex="1" connectable="0">
          <mxGeometry x="-0.6211" relative="1" as="geometry">
            <mxPoint y="1" as="offset" />
          </mxGeometry>
        </mxCell>
        <mxCell id="Uub1bpQBf8IHmAAVOYTw-37" style="edgeStyle=orthogonalEdgeStyle;rounded=0;orthogonalLoop=1;jettySize=auto;html=1;entryX=1;entryY=0.5;entryDx=0;entryDy=0;" parent="1" source="Uub1bpQBf8IHmAAVOYTw-30" target="Uub1bpQBf8IHmAAVOYTw-35" edge="1">
          <mxGeometry relative="1" as="geometry">
            <Array as="points">
              <mxPoint x="290" y="85" />
            </Array>
          </mxGeometry>
        </mxCell>
        <mxCell id="Uub1bpQBf8IHmAAVOYTw-38" value="No" style="edgeLabel;html=1;align=center;verticalAlign=middle;resizable=0;points=[];" parent="Uub1bpQBf8IHmAAVOYTw-37" vertex="1" connectable="0">
          <mxGeometry x="-0.6556" y="2" relative="1" as="geometry">
            <mxPoint as="offset" />
          </mxGeometry>
        </mxCell>
        <mxCell id="Uub1bpQBf8IHmAAVOYTw-72" value="" style="edgeStyle=orthogonalEdgeStyle;rounded=0;orthogonalLoop=1;jettySize=auto;html=1;" parent="1" source="Uub1bpQBf8IHmAAVOYTw-30" target="Uub1bpQBf8IHmAAVOYTw-39" edge="1">
          <mxGeometry x="-0.5238" y="-100" relative="1" as="geometry">
            <Array as="points">
              <mxPoint x="310" y="290" />
            </Array>
            <mxPoint as="offset" />
          </mxGeometry>
        </mxCell>
        <mxCell id="Uub1bpQBf8IHmAAVOYTw-74" value="YES" style="edgeLabel;html=1;align=center;verticalAlign=middle;resizable=0;points=[];" parent="Uub1bpQBf8IHmAAVOYTw-72" vertex="1" connectable="0">
          <mxGeometry x="-0.4656" y="2" relative="1" as="geometry">
            <mxPoint as="offset" />
          </mxGeometry>
        </mxCell>
        <mxCell id="Uub1bpQBf8IHmAAVOYTw-30" value="get user&amp;nbsp;&lt;br&gt;with username.&lt;br&gt;check user is exists" style="rounded=1;whiteSpace=wrap;html=1;" parent="1" vertex="1">
          <mxGeometry x="225" y="145" width="120" height="60" as="geometry" />
        </mxCell>
        <mxCell id="Uub1bpQBf8IHmAAVOYTw-36" style="edgeStyle=orthogonalEdgeStyle;rounded=0;orthogonalLoop=1;jettySize=auto;html=1;entryX=0;entryY=0.3333333333333333;entryDx=0;entryDy=0;entryPerimeter=0;" parent="1" source="Uub1bpQBf8IHmAAVOYTw-35" target="VXRjtuLJzrn9sCzOnKX1-2" edge="1">
          <mxGeometry relative="1" as="geometry">
            <Array as="points">
              <mxPoint x="20" y="85" />
              <mxPoint x="20" y="300" />
            </Array>
          </mxGeometry>
        </mxCell>
        <mxCell id="Uub1bpQBf8IHmAAVOYTw-35" value="404 Not Found.&lt;br&gt;User with username not found" style="rounded=1;whiteSpace=wrap;html=1;fillColor=#f8cecc;strokeColor=#b85450;" parent="1" vertex="1">
          <mxGeometry x="50" y="55" width="120" height="60" as="geometry" />
        </mxCell>
        <mxCell id="Uub1bpQBf8IHmAAVOYTw-78" style="edgeStyle=orthogonalEdgeStyle;rounded=0;orthogonalLoop=1;jettySize=auto;html=1;entryX=1;entryY=0.5;entryDx=0;entryDy=0;" parent="1" source="Uub1bpQBf8IHmAAVOYTw-39" target="Uub1bpQBf8IHmAAVOYTw-76" edge="1">
          <mxGeometry relative="1" as="geometry">
            <Array as="points">
              <mxPoint x="470" y="360" />
            </Array>
          </mxGeometry>
        </mxCell>
        <mxCell id="Uub1bpQBf8IHmAAVOYTw-79" value="No match" style="edgeLabel;html=1;align=center;verticalAlign=middle;resizable=0;points=[];" parent="Uub1bpQBf8IHmAAVOYTw-78" vertex="1" connectable="0">
          <mxGeometry x="0.3117" y="4" relative="1" as="geometry">
            <mxPoint x="7" y="-4" as="offset" />
          </mxGeometry>
        </mxCell>
        <mxCell id="Uub1bpQBf8IHmAAVOYTw-82" value="Match" style="edgeStyle=orthogonalEdgeStyle;rounded=0;orthogonalLoop=1;jettySize=auto;html=1;" parent="1" source="Uub1bpQBf8IHmAAVOYTw-39" target="Uub1bpQBf8IHmAAVOYTw-81" edge="1">
          <mxGeometry relative="1" as="geometry">
            <Array as="points">
              <mxPoint x="560" y="290" />
            </Array>
          </mxGeometry>
        </mxCell>
        <mxCell id="Uub1bpQBf8IHmAAVOYTw-39" value="compare password" style="rounded=1;whiteSpace=wrap;html=1;" parent="1" vertex="1">
          <mxGeometry x="414" y="260" width="120" height="60" as="geometry" />
        </mxCell>
        <mxCell id="Uub1bpQBf8IHmAAVOYTw-75" style="edgeStyle=orthogonalEdgeStyle;rounded=0;orthogonalLoop=1;jettySize=auto;html=1;" parent="1" source="Uub1bpQBf8IHmAAVOYTw-71" target="VXRjtuLJzrn9sCzOnKX1-2" edge="1">
          <mxGeometry relative="1" as="geometry" />
        </mxCell>
        <mxCell id="Uub1bpQBf8IHmAAVOYTw-71" value="200 OK&lt;br&gt;send user data with token" style="rounded=1;whiteSpace=wrap;html=1;fillColor=#d5e8d4;strokeColor=#82b366;" parent="1" vertex="1">
          <mxGeometry x="250" y="440" width="120" height="60" as="geometry" />
        </mxCell>
        <mxCell id="Uub1bpQBf8IHmAAVOYTw-80" style="edgeStyle=orthogonalEdgeStyle;rounded=0;orthogonalLoop=1;jettySize=auto;html=1;" parent="1" source="Uub1bpQBf8IHmAAVOYTw-76" target="VXRjtuLJzrn9sCzOnKX1-2" edge="1">
          <mxGeometry relative="1" as="geometry" />
        </mxCell>
        <mxCell id="Uub1bpQBf8IHmAAVOYTw-76" value="403 Bad Reqeust&lt;br&gt;username or password wrong" style="rounded=1;whiteSpace=wrap;html=1;fillColor=#f8cecc;strokeColor=#b85450;" parent="1" vertex="1">
          <mxGeometry x="250" y="330" width="120" height="60" as="geometry" />
        </mxCell>
        <mxCell id="Uub1bpQBf8IHmAAVOYTw-83" style="edgeStyle=orthogonalEdgeStyle;rounded=0;orthogonalLoop=1;jettySize=auto;html=1;" parent="1" source="Uub1bpQBf8IHmAAVOYTw-81" target="Uub1bpQBf8IHmAAVOYTw-71" edge="1">
          <mxGeometry relative="1" as="geometry" />
        </mxCell>
        <mxCell id="Uub1bpQBf8IHmAAVOYTw-84" value="YES" style="edgeLabel;html=1;align=center;verticalAlign=middle;resizable=0;points=[];" parent="Uub1bpQBf8IHmAAVOYTw-83" vertex="1" connectable="0">
          <mxGeometry x="0.1778" y="-4" relative="1" as="geometry">
            <mxPoint x="7" y="4" as="offset" />
          </mxGeometry>
        </mxCell>
        <mxCell id="Uub1bpQBf8IHmAAVOYTw-86" style="edgeStyle=orthogonalEdgeStyle;rounded=0;orthogonalLoop=1;jettySize=auto;html=1;entryX=1;entryY=0.75;entryDx=0;entryDy=0;" parent="1" source="Uub1bpQBf8IHmAAVOYTw-81" target="Uub1bpQBf8IHmAAVOYTw-85" edge="1">
          <mxGeometry relative="1" as="geometry">
            <Array as="points">
              <mxPoint x="520" y="600" />
            </Array>
          </mxGeometry>
        </mxCell>
        <mxCell id="Uub1bpQBf8IHmAAVOYTw-81" value="Check is_confirmed" style="rounded=1;whiteSpace=wrap;html=1;" parent="1" vertex="1">
          <mxGeometry x="460" y="440" width="120" height="60" as="geometry" />
        </mxCell>
        <mxCell id="Uub1bpQBf8IHmAAVOYTw-87" style="edgeStyle=orthogonalEdgeStyle;rounded=0;orthogonalLoop=1;jettySize=auto;html=1;" parent="1" source="Uub1bpQBf8IHmAAVOYTw-85" edge="1">
          <mxGeometry relative="1" as="geometry">
            <mxPoint x="110" y="340" as="targetPoint" />
          </mxGeometry>
        </mxCell>
        <mxCell id="Uub1bpQBf8IHmAAVOYTw-85" value="400 Forbidden&lt;br&gt;Email not verified" style="rounded=1;whiteSpace=wrap;html=1;fillColor=#f8cecc;strokeColor=#b85450;" parent="1" vertex="1">
          <mxGeometry x="250" y="555" width="120" height="60" as="geometry" />
        </mxCell>
      </root>
    </mxGraphModel>
  </diagram>
</mxfile>
